<?xml version="1.0" encoding="UTF-8"?>
<svg id="Layer_1" data-name="Layer 1" xmlns="http://www.w3.org/2000/svg" viewBox="0 0 1775.8 566.69">
  <defs>
    <style>
      .cls-1 {
        fill: #fff;
      }

      .cls-2 {
        fill: #ff2342;
      }

      .cls-3 {
        fill: #0000be;
      }
    </style>
  </defs>
  <g>
    <path class="cls-2" d="M463.56,542.7c-107.87,10.31-216.49,10.31-324.36,0-49.66-5.06-91.47-49.55-96.48-99.23-10.83-108.38-10.83-214.32,0-322.71,5.01-49.68,46.82-94.17,96.48-99.23,107.87-10.31,216.49-10.3,324.36,0,49.66,5.07,91.47,49.55,96.48,99.23,10.83,108.38,10.83,214.33,0,322.71-5.01,49.68-46.82,94.17-96.48,99.23Z"/>
    <path class="cls-1" d="M482.34,242.8c-.72-8.05-9.26-16.72-18.89-19.11-24.42-5.79-48.92-10.44-73.38-13.79-8.63-1.18-15.31-7.86-16.49-16.48-3.35-24.45-7.99-48.94-13.77-73.37-2.31-9.61-11.17-18.15-19.11-18.89-26.6-2.18-52.09-2.18-78.65,0-8.05.72-16.72,9.26-19.11,18.89-5.79,24.43-10.44,48.92-13.79,73.38-1.18,8.63-7.86,15.31-16.48,16.49-24.45,3.35-48.94,7.99-73.36,13.77-9.61,2.31-18.16,11.17-18.89,19.11-2.18,26.6-2.18,52.09,0,78.65.72,8.05,9.26,16.72,18.89,19.11,24.42,5.79,48.92,10.44,73.37,13.79,8.63,1.18,15.3,7.86,16.49,16.48,3.35,24.45,7.99,48.94,13.77,73.35,2.31,9.61,11.17,18.15,19.11,18.89,26.6,2.18,52.09,2.18,78.65,0,8.05-.72,16.72-9.26,19.11-18.89,5.79-24.42,10.44-48.91,13.79-73.37,1.18-8.63,7.86-15.3,16.48-16.49,24.45-3.35,48.94-8,73.37-13.77,9.62-2.31,18.15-11.17,18.89-19.11,2.18-26.6,2.18-52.09,0-78.65Z"/>
  </g>
  <g>
    <path class="cls-3" d="M673.14,251.45V60.16c0-8.82,2.56-13.09,13.66-14.8,20.78-3.13,46.11-4.84,70.02-4.84,60.06,0,100.76,22.2,100.76,74.86,0,43.55-27.61,79.13-102.18,79.13h-26.19v56.93c0,6.26-3.42,9.68-9.68,9.68h-36.72c-6.26,0-9.68-3.42-9.68-9.68ZM755.97,149.83c30.74,0,44.4-9.96,44.4-32.17s-14.8-32.45-42.4-32.45c-10.25,0-21.35,1.14-28.75,2.84v61.77h26.76Z"/>
    <path class="cls-3" d="M874.06,178.29c0-59.21,39-96.49,101.04-96.49,26.19,0,60.35,6.26,76.29,14.23,5.12,2.28,6.83,4.84,6.83,10.25v145.17c0,6.26-3.42,9.68-9.68,9.68h-35.86c-6.26,0-9.96-3.42-9.96-9.68v-21.07c-11.67,22.2-30.17,33.59-55.78,33.59-43.55,0-72.87-34.15-72.87-85.68ZM967.14,216.72c14.23,0,26.47-6.26,35.57-18.79v-65.75c-9.39-3.7-19.35-5.41-28.46-5.41-28.46,0-44.97,17.08-44.97,46.11,0,27.04,14.51,43.83,37.86,43.83Z"/>
    <path class="cls-3" d="M1099.45,304.68c-3.99-2.28-7.11-4.85-3.7-13.38l6.54-17.37c2.56-6.83,6.84-8.25,13.38-5.13,17.65,8.82,34.44,12.81,55.79,12.81,30.74,0,47.53-15.36,47.53-46.11v-14.23c-11.67,21.91-30.17,30.17-55.78,30.17-43.26,0-72.87-32.45-72.87-77.14,0-55.5,39.28-92.51,102.75-92.51,29.6,0,58.64,6.26,74.58,14.23,5.12,2.28,6.83,4.84,6.83,10.25v125.81c0,52.09-33.02,88.81-96.21,88.81-33.3,0-64.04-6.55-78.85-16.22ZM1183.42,209.61c14.23,0,26.75-6.27,35.57-18.51v-60.34c-9.1-3.7-19.07-5.13-28.46-5.13-28.18,0-44.97,16.51-44.97,43.26,0,24.2,14.8,40.71,37.86,40.71Z"/>
    <path class="cls-3" d="M1311.46,196.51v-102.18c0-6.27,3.7-9.68,9.96-9.68h35.86c6.26,0,9.68,3.42,9.68,9.68v87.67c0,21.91,9.96,32.16,28.18,32.16,14.23,0,28.46-7.11,36.43-18.5v-101.33c0-6.27,3.7-9.68,9.96-9.68h35.86c6.26,0,9.68,3.42,9.68,9.68v157.12c0,6.26-3.42,9.68-9.68,9.68h-35.86c-6.55,0-9.96-3.42-9.96-9.68v-25.05c-11.96,24.48-32.17,37.57-59.49,37.57-39,0-60.63-25.33-60.63-67.46Z"/>
    <path class="cls-3" d="M1615.4,81.8c52.95,0,86.25,31.88,86.25,78.85,0,14.8-5.13,23.05-15.65,23.05h-111.87c4.56,25.91,21.92,40.99,51.52,40.99,15.66,0,29.89-4.27,45.83-12.53,6.27-3.13,10.53-1.7,13.1,4.85l6.83,17.08c3.13,8.54.28,11.39-3.7,13.66-16.51,10.25-41.27,16.22-66.32,16.22-61.2,0-101.62-38.71-101.62-92.51s39-89.66,95.64-89.66ZM1653.26,152.39c-3.13-20.78-16.22-31.6-37.86-31.6-20.49,0-35.86,9.39-40.7,31.6h78.56Z"/>
    <path class="cls-3" d="M673.14,511.19v-198.11c0-6.26,3.7-9.68,9.96-9.68h53.51c5.69,0,9.1,2.56,11.39,7.68l50.38,118.7,49.81-118.7c2.28-5.41,6.27-7.68,11.96-7.68h51.24c6.26,0,9.96,3.42,9.96,9.68v198.11c0,6.26-3.7,9.68-9.96,9.68h-31.03c-6.26,0-9.96-3.42-9.96-9.68v-143.74l-45.26,104.75c-1.99,5.12-5.98,7.4-11.39,7.4h-32.16c-5.7,0-9.39-2.28-11.39-7.4l-46.12-106.74v145.74c0,6.26-3.7,9.68-9.96,9.68h-31.03c-6.27,0-9.96-3.42-9.96-9.68Z"/>
    <path class="cls-3" d="M1048.8,341.54c52.95,0,86.25,31.88,86.25,78.85,0,14.8-5.13,23.05-15.65,23.05h-111.87c4.56,25.91,21.92,40.99,51.52,40.99,15.66,0,29.89-4.27,45.83-12.53,6.27-3.13,10.53-1.7,13.1,4.85l6.83,17.08c3.13,8.54.28,11.39-3.7,13.66-16.51,10.25-41.27,16.22-66.32,16.22-61.2,0-101.62-38.71-101.62-92.51s39-89.66,95.64-89.66ZM1086.66,412.14c-3.13-20.78-16.22-31.6-37.86-31.6-20.49,0-35.86,9.39-40.7,31.6h78.56Z"/>
    <path class="cls-3" d="M1166.61,511.19v-157.12c0-6.27,3.7-9.68,9.96-9.68h35.86c6.26,0,9.68,3.42,9.68,9.68v25.62c11.96-25.05,32.17-38.15,60.63-38.15,40.42,0,61.77,26.47,61.77,68.31v101.34c0,6.26-3.42,9.68-9.68,9.68h-35.86c-6.26,0-9.96-3.42-9.96-9.68v-86.82c0-21.91-9.96-33.02-29.31-33.02-15.08,0-29.31,7.12-37.58,18.5v101.34c0,6.26-3.42,9.68-9.68,9.68h-35.86c-6.26,0-9.96-3.42-9.96-9.68Z"/>
    <path class="cls-3" d="M1373.49,430.64c0-53.51,38.72-89.09,97.06-89.09s97.06,35.58,97.06,89.09-40.42,93.08-97.06,93.08-97.06-39.28-97.06-93.08ZM1470.55,478.75c25.05,0,41.27-19.65,41.27-47.82s-15.36-44.41-41.27-44.41-41.27,16.79-41.27,44.41,16.51,47.82,41.27,47.82Z"/>
    <path class="cls-3" d="M1591.2,507.78c-5.7-3.99-6.55-7.12-3.7-14.24l6.55-16.22c2.56-6.83,7.4-8.53,14.23-5.41,17.37,8.83,33.59,12.81,54.65,12.81s29.6-4.84,29.6-15.65c0-9.68-7.68-13.66-38.71-19.07-41.56-7.4-60.06-24.2-59.21-53.8,1.14-34.15,27.04-54.65,72.58-54.65,25.06,0,49.81,5.98,65.76,16.22,6.26,3.42,7.11,5.41,3.99,13.95l-6.26,16.22c-2.85,6.83-7.4,8.25-14.52,5.13-17.37-7.97-35.29-12.53-50.38-12.53-16.22,0-22.48,4.56-22.48,13.38,0,9.68,7.97,13.95,38.71,19.07,40.14,6.55,59.21,24.2,59.21,54.37,0,36.43-27.32,56.35-77.71,56.35-28.46,0-58.07-6.54-72.3-15.93Z"/>
  </g>
</svg>